<svg width="275" height="228" viewBox="0 0 275 228" fill="none" xmlns="http://www.w3.org/2000/svg">
<g filter="url(#filter0_f_478_2908)">
<g opacity="0.3">
<rect x="24" y="24" width="320" height="320" rx="80" fill="url(#paint0_linear_478_2908)"/>
<path d="M178.695 262.001C178.695 268.628 173.299 274.083 166.73 273.206C159.195 272.2 151.807 270.245 144.751 267.378C133.99 263.006 124.212 256.598 115.975 248.519C107.739 240.441 101.205 230.85 96.7479 220.294C92.2904 209.739 89.9961 198.426 89.9961 187.001C89.9961 175.576 92.2904 164.263 96.7479 153.708C101.205 143.152 107.739 133.561 115.975 125.483C124.212 117.404 133.99 110.996 144.751 106.623C151.807 103.757 159.195 101.802 166.73 100.796C173.299 99.919 178.695 105.374 178.695 112.001L178.695 262.001Z" fill="#151515"/>
<path d="M201.266 167.178C201.266 173.805 206.646 179.225 213.255 178.739C219.731 178.262 226.079 177.399 232.157 176.164C241.951 174.175 250.849 171.259 258.345 167.583C265.841 163.906 271.787 159.542 275.844 154.739C279.9 149.936 281.988 144.788 281.988 139.589C281.988 134.391 279.9 129.243 275.844 124.44C271.787 119.636 265.841 115.272 258.345 111.596C250.849 107.92 241.951 105.004 232.157 103.014C226.079 101.78 219.731 100.917 213.255 100.44C206.646 99.9532 201.266 105.374 201.266 112.001L201.266 167.178Z" fill="#151515"/>
<rect x="201.266" y="194.825" width="80.7226" height="79.1767" rx="39.5883" fill="#151515"/>
</g>
</g>
<defs>
<filter id="filter0_f_478_2908" x="0" y="0" width="368" height="368" filterUnits="userSpaceOnUse" color-interpolation-filters="sRGB">
<feFlood flood-opacity="0" result="BackgroundImageFix"/>
<feBlend mode="normal" in="SourceGraphic" in2="BackgroundImageFix" result="shape"/>
<feGaussianBlur stdDeviation="12" result="effect1_foregroundBlur_478_2908"/>
</filter>
<linearGradient id="paint0_linear_478_2908" x1="24" y1="184" x2="344" y2="184" gradientUnits="userSpaceOnUse">
<stop stop-color="#9C6DFF"/>
<stop offset="1" stop-color="#71DDFF"/>
</linearGradient>
</defs>
</svg>
