<svg width="17" height="16" viewBox="0 0 17 16" fill="none" xmlns="http://www.w3.org/2000/svg">
<path d="M8.5 0C6.29167 0 4.40625 0.78125 2.84375 2.34375C1.28125 3.90625 0.5 5.79167 0.5 8C0.5 10.2083 1.28125 12.0938 2.84375 13.6562C4.40625 15.2188 6.29167 16 8.5 16C10.7083 16 12.5938 15.2188 14.1562 13.6562C15.7188 12.0938 16.5 10.2083 16.5 8C16.5 5.79167 15.7188 3.90625 14.1562 2.34375C12.5938 0.78125 10.7083 0 8.5 0ZM1.84375 8C1.84375 6.16667 2.49479 4.59896 3.79688 3.29688C5.09896 1.99479 6.66667 1.34375 8.5 1.34375C10.1458 1.34375 11.5417 1.85417 12.6875 2.875L3.375 12.1875C2.35417 11.0417 1.84375 9.64583 1.84375 8ZM8.5 14.6562C6.85417 14.6562 5.45833 14.1458 4.3125 13.125L13.625 3.8125C14.6458 4.95833 15.1562 6.35417 15.1562 8C15.1562 9.83333 14.5052 11.401 13.2031 12.7031C11.901 14.0052 10.3333 14.6562 8.5 14.6562Z" fill="#1A1A1A"/>
</svg>
