<svg width="12" height="12" viewBox="0 0 12 12" fill="none" xmlns="http://www.w3.org/2000/svg">
<path d="M6 0C2.68548 0 0 2.68548 0 6C0 9.31452 2.68548 12 6 12C9.31452 12 12 9.31452 12 6C12 2.68548 9.31452 0 6 0ZM8.23766 7.57258L7.75379 8.17742C7.72204 8.21712 7.68277 8.25018 7.63824 8.2747C7.59371 8.29923 7.54479 8.31474 7.49426 8.32036C7.44374 8.32597 7.3926 8.32158 7.34377 8.30744C7.29494 8.29329 7.24937 8.26966 7.20968 8.2379L5.58871 7.035C5.47545 6.94432 5.38403 6.82933 5.32121 6.69855C5.25839 6.56776 5.22579 6.42452 5.22581 6.27944V2.51613C5.22581 2.41346 5.26659 2.31501 5.33918 2.24241C5.41178 2.16982 5.51024 2.12903 5.6129 2.12903H6.3871C6.48976 2.12903 6.58822 2.16982 6.66082 2.24241C6.73341 2.31501 6.77419 2.41346 6.77419 2.51613V6L8.17742 7.02823C8.21714 7.06 8.2502 7.09929 8.27473 7.14385C8.29925 7.18841 8.31476 7.23736 8.32035 7.28792C8.32594 7.33847 8.32152 7.38963 8.30733 7.43848C8.29315 7.48732 8.26947 7.53289 8.23766 7.57258Z" fill="#DDDDDD" fill-opacity="0.7"/>
</svg>
