<svg width="12" height="13" viewBox="0 0 12 13" fill="none" xmlns="http://www.w3.org/2000/svg">
<path d="M2.66699 12.6666C2.30033 12.6666 1.98633 12.536 1.72499 12.2746C1.46366 12.0133 1.33322 11.6995 1.33366 11.3333V2.66663C1.14477 2.66663 0.986328 2.60263 0.858328 2.47463C0.730328 2.34663 0.66655 2.18841 0.666994 1.99996C0.666994 1.81107 0.730995 1.65263 0.858995 1.52463C0.986995 1.39663 1.14522 1.33285 1.33366 1.33329H4.00033C4.00033 1.14441 4.06433 0.985962 4.19233 0.857962C4.32033 0.729962 4.47855 0.666184 4.66699 0.666628H7.33366C7.52255 0.666628 7.68099 0.730628 7.809 0.858628C7.937 0.986628 8.00077 1.14485 8.00033 1.33329H10.667C10.8559 1.33329 11.0143 1.3973 11.1423 1.5253C11.2703 1.6533 11.3341 1.81152 11.3337 1.99996C11.3337 2.18885 11.2697 2.34729 11.1417 2.47529C11.0137 2.60329 10.8554 2.66707 10.667 2.66663V11.3333C10.667 11.7 10.5363 12.014 10.275 12.2753C10.0137 12.5366 9.69988 12.6671 9.33366 12.6666H2.66699ZM4.00033 9.3333C4.00033 9.52218 4.06433 9.68063 4.19233 9.80863C4.32033 9.93663 4.47855 10.0004 4.66699 9.99996C4.85588 9.99996 5.01433 9.93596 5.14233 9.80796C5.27033 9.67996 5.33411 9.52174 5.33366 9.3333V4.66663C5.33366 4.47774 5.26966 4.31929 5.14166 4.19129C5.01366 4.06329 4.85544 3.99952 4.66699 3.99996C4.47811 3.99996 4.31966 4.06396 4.19166 4.19196C4.06366 4.31996 3.99988 4.47818 4.00033 4.66663V9.3333ZM6.667 9.3333C6.667 9.52218 6.731 9.68063 6.85899 9.80863C6.987 9.93663 7.14522 10.0004 7.33366 9.99996C7.52255 9.99996 7.68099 9.93596 7.809 9.80796C7.937 9.67996 8.00077 9.52174 8.00033 9.3333V4.66663C8.00033 4.47774 7.93633 4.31929 7.80833 4.19129C7.68033 4.06329 7.52211 3.99952 7.33366 3.99996C7.14477 3.99996 6.98633 4.06396 6.85833 4.19196C6.73033 4.31996 6.66655 4.47818 6.667 4.66663V9.3333Z" fill="white" fill-opacity="0.5"/>
</svg>
