<svg width="27" height="28" viewBox="0 0 27 28" fill="none" xmlns="http://www.w3.org/2000/svg">
<path d="M11.6327 20.1334L21.0327 10.7334L19.166 8.86669L11.6327 16.4L7.83268 12.6L5.96602 14.4667L11.6327 20.1334ZM13.4993 27.3334C11.6549 27.3334 9.92157 26.9831 8.29935 26.2827C6.67713 25.5822 5.26602 24.6325 4.06602 23.4334C2.86602 22.2334 1.91624 20.8222 1.21668 19.2C0.517127 17.5778 0.166905 15.8445 0.166016 14C0.166016 12.1556 0.516238 10.4222 1.21668 8.80002C1.91713 7.1778 2.8669 5.76669 4.06602 4.56669C5.26602 3.36669 6.67713 2.41691 8.29935 1.71735C9.92157 1.0178 11.6549 0.667576 13.4993 0.666687C15.3438 0.666687 17.0771 1.01691 18.6993 1.71735C20.3216 2.4178 21.7327 3.36758 22.9327 4.56669C24.1327 5.76669 25.0829 7.1778 25.7833 8.80002C26.4838 10.4222 26.8336 12.1556 26.8327 14C26.8327 15.8445 26.4825 17.5778 25.782 19.2C25.0816 20.8222 24.1318 22.2334 22.9327 23.4334C21.7327 24.6334 20.3216 25.5836 18.6993 26.284C17.0771 26.9845 15.3438 27.3342 13.4993 27.3334ZM13.4993 24.6667C16.4771 24.6667 18.9993 23.6334 21.066 21.5667C23.1327 19.5 24.166 16.9778 24.166 14C24.166 11.0222 23.1327 8.50002 21.066 6.43335C18.9993 4.36669 16.4771 3.33335 13.4993 3.33335C10.5216 3.33335 7.99935 4.36669 5.93268 6.43335C3.86602 8.50002 2.83268 11.0222 2.83268 14C2.83268 16.9778 3.86602 19.5 5.93268 21.5667C7.99935 23.6334 10.5216 24.6667 13.4993 24.6667Z" fill="url(#paint0_linear_478_2777)"/>
<defs>
<linearGradient id="paint0_linear_478_2777" x1="0.166016" y1="14" x2="26.8327" y2="14" gradientUnits="userSpaceOnUse">
<stop stop-color="#9C6DFF"/>
<stop offset="1" stop-color="#71DDFF"/>
</linearGradient>
</defs>
</svg>
