<svg width="33" height="33" viewBox="0 0 33 33" fill="none" xmlns="http://www.w3.org/2000/svg">
<rect x="0.932861" y="0.666504" width="32" height="32" rx="8" fill="white"/>
<path d="M16.4028 24.4663C16.4028 25.129 15.8632 25.6745 15.2063 25.5867C14.4529 25.4861 13.7141 25.2907 13.0085 25.004C11.9323 24.5668 10.9545 23.926 10.1309 23.1181C9.30724 22.3102 8.65389 21.3511 8.20814 20.2956C7.76238 19.2401 7.53296 18.1088 7.53296 16.9663C7.53296 15.8238 7.76239 14.6924 8.20814 13.6369C8.65389 12.5814 9.30724 11.6223 10.1309 10.8144C10.9545 10.0066 11.9323 9.36573 13.0085 8.92851C13.7141 8.64184 14.4529 8.44639 15.2063 8.34578C15.8633 8.25806 16.4028 8.80352 16.4028 9.46626L16.4028 24.4663Z" fill="url(#paint0_linear_458_6012)"/>
<path d="M18.6607 14.9839C18.6607 15.6467 19.1987 16.1887 19.8596 16.14C20.5072 16.0923 21.1421 16.006 21.7498 15.8826C22.7292 15.6836 23.6191 15.392 24.3687 15.0244C25.1182 14.6568 25.7128 14.2204 26.1185 13.7401C26.5242 13.2598 26.733 12.745 26.733 12.2251C26.733 11.7052 26.5242 11.1904 26.1185 10.7101C25.7128 10.2298 25.1182 9.79339 24.3686 9.42578C23.6191 9.05817 22.7292 8.76656 21.7498 8.56761C21.1421 8.44415 20.5072 8.35787 19.8596 8.31017C19.1987 8.26149 18.6607 8.80352 18.6607 9.46626L18.6607 14.9839Z" fill="url(#paint1_linear_458_6012)"/>
<path d="M18.6607 21.7075C18.6607 19.521 20.4331 17.7486 22.6196 17.7486H22.7741C24.9606 17.7486 26.733 19.521 26.733 21.7075C26.733 23.8939 24.9606 25.6663 22.7741 25.6663H22.6196C20.4331 25.6663 18.6607 23.8939 18.6607 21.7075Z" fill="url(#paint2_linear_458_6012)"/>
<defs>
<linearGradient id="paint0_linear_458_6012" x1="7.53296" y1="16.9867" x2="26.733" y2="16.9867" gradientUnits="userSpaceOnUse">
<stop stop-color="#9C6DFF"/>
<stop offset="1" stop-color="#71DDFF"/>
</linearGradient>
<linearGradient id="paint1_linear_458_6012" x1="7.53296" y1="16.9867" x2="26.733" y2="16.9867" gradientUnits="userSpaceOnUse">
<stop stop-color="#9C6DFF"/>
<stop offset="1" stop-color="#71DDFF"/>
</linearGradient>
<linearGradient id="paint2_linear_458_6012" x1="7.53296" y1="16.9867" x2="26.733" y2="16.9867" gradientUnits="userSpaceOnUse">
<stop stop-color="#9C6DFF"/>
<stop offset="1" stop-color="#71DDFF"/>
</linearGradient>
</defs>
</svg>
