<svg width="150" height="40" viewBox="0 0 150 40" fill="none" xmlns="http://www.w3.org/2000/svg">
<rect width="39.9996" height="40" rx="9.99995" fill="url(#paint0_linear_1025_358)"/>
<path d="M19.3353 29.75C19.3353 30.5784 18.6608 31.2603 17.8397 31.1506C16.8978 31.0248 15.9743 30.7805 15.0924 30.4222C13.7472 29.8757 12.525 29.0746 11.4954 28.0648C10.4659 27.0549 9.6492 25.8561 9.09201 24.5367C8.53483 23.2173 8.24805 21.8031 8.24805 20.375C8.24805 18.9469 8.53483 17.5327 9.09201 16.2133C9.6492 14.8939 10.4659 13.695 11.4954 12.6852C12.525 11.6754 13.7472 10.8743 15.0924 10.3278C15.9744 9.96947 16.8979 9.72516 17.8397 9.5994C18.6608 9.48975 19.3353 10.1716 19.3353 11L19.3353 29.75Z" fill="#151515"/>
<path d="M22.1578 17.8971C22.1578 18.7255 22.8303 19.4031 23.6565 19.3422C24.466 19.2826 25.2595 19.1747 26.0192 19.0204C27.2434 18.7717 28.3557 18.4072 29.2927 17.9477C30.2297 17.4882 30.9729 16.9427 31.48 16.3423C31.9871 15.7419 32.248 15.0984 32.248 14.4485C32.248 13.7987 31.9871 13.1552 31.48 12.5548C30.9729 11.9544 30.2297 11.4089 29.2927 10.9494C28.3557 10.4899 27.2434 10.1254 26.0192 9.87669C25.2595 9.72236 24.466 9.61451 23.6565 9.55489C22.8303 9.49403 22.1578 10.1716 22.1578 11L22.1578 17.8971Z" fill="#151515"/>
<rect x="22.1582" y="21.353" width="10.0902" height="9.89709" rx="4.94854" fill="#151515"/>
<path d="M66.9026 17.0942H64.2713C64.1701 16.532 63.9817 16.0372 63.7062 15.6099C63.4307 15.1825 63.0933 14.8199 62.6941 14.5219C62.2949 14.2239 61.8479 13.999 61.3532 13.8472C60.864 13.6954 60.3439 13.6195 59.7929 13.6195C58.7977 13.6195 57.9065 13.8697 57.1194 14.3701C56.3378 14.8705 55.7193 15.6042 55.2639 16.5713C54.8141 17.5384 54.5892 18.7192 54.5892 20.1136C54.5892 21.5192 54.8141 22.7056 55.2639 23.6727C55.7193 24.6398 56.3406 25.3708 57.1278 25.8655C57.9149 26.3603 58.8005 26.6077 59.7845 26.6077C60.3298 26.6077 60.8471 26.5346 61.3363 26.3884C61.8311 26.2366 62.2781 26.0145 62.6773 25.7222C63.0765 25.4298 63.4138 25.0728 63.6893 24.6511C63.9705 24.2237 64.1644 23.7346 64.2713 23.1835L66.9026 23.192C66.7621 24.041 66.4894 24.8225 66.0845 25.5366C65.6853 26.2451 65.1709 26.8579 64.5412 27.3752C63.917 27.8869 63.203 28.2833 62.3989 28.5644C61.5949 28.8455 60.7178 28.9861 59.7676 28.9861C58.272 28.9861 56.9394 28.6319 55.7699 27.9234C54.6004 27.2094 53.6783 26.1888 53.0036 24.8619C52.3345 23.535 52 21.9522 52 20.1136C52 18.2694 52.3374 16.6866 53.0121 15.3653C53.6868 14.0383 54.6089 13.0206 55.7784 12.3122C56.9479 11.5981 58.2776 11.2411 59.7676 11.2411C60.6841 11.2411 61.5387 11.3732 62.3315 11.6375C63.1299 11.8961 63.8468 12.2785 64.4821 12.7845C65.1175 13.2849 65.6432 13.8978 66.0592 14.6231C66.4753 15.3428 66.7564 16.1665 66.9026 17.0942Z" fill="white"/>
<path d="M69.8186 28.75V15.7954H72.3404V28.75H69.8186ZM71.0922 13.7966C70.6536 13.7966 70.2769 13.6504 69.962 13.358C69.6528 13.06 69.4982 12.7058 69.4982 12.2953C69.4982 11.8792 69.6528 11.525 69.962 11.2326C70.2769 10.9346 70.6536 10.7856 71.0922 10.7856C71.5307 10.7856 71.9046 10.9346 72.2139 11.2326C72.5287 11.525 72.6862 11.8792 72.6862 12.2953C72.6862 12.7058 72.5287 13.06 72.2139 13.358C71.9046 13.6504 71.5307 13.7966 71.0922 13.7966Z" fill="white"/>
<path d="M78.2546 21.0582V28.75H75.7329V15.7954H78.1534V17.9039H78.3136C78.6116 17.2179 79.0783 16.6669 79.7137 16.2508C80.3546 15.8348 81.1615 15.6267 82.1342 15.6267C83.0169 15.6267 83.79 15.8123 84.4535 16.1834C85.117 16.5488 85.6314 17.0942 85.9969 17.8196C86.3624 18.5449 86.5451 19.4417 86.5451 20.51V28.75H84.0234V20.8136C84.0234 19.8746 83.7788 19.1409 83.2896 18.6123C82.8005 18.0782 82.1286 17.8111 81.2739 17.8111C80.6892 17.8111 80.1691 17.9376 79.7137 18.1907C79.2639 18.4437 78.9068 18.8148 78.6426 19.3039C78.3839 19.7875 78.2546 20.3722 78.2546 21.0582Z" fill="white"/>
<path d="M95.5103 29.0114C94.234 29.0114 93.1348 28.7387 92.2126 28.1933C91.2962 27.6423 90.5877 26.8692 90.0873 25.874C89.5925 24.8731 89.3451 23.7008 89.3451 22.357C89.3451 21.0301 89.5925 19.8606 90.0873 18.8485C90.5877 17.8364 91.2849 17.0464 92.1789 16.4786C93.0785 15.9107 94.1299 15.6267 95.3332 15.6267C96.0641 15.6267 96.7726 15.7476 97.4585 15.9894C98.1445 16.2312 98.7601 16.6107 99.3055 17.128C99.8509 17.6453 100.281 18.3172 100.596 19.1437C100.911 19.9646 101.068 20.9626 101.068 22.1377V23.0317H90.7705V21.1425H98.5971C98.5971 20.4791 98.4621 19.8915 98.1923 19.3798C97.9224 18.8626 97.5428 18.4549 97.0537 18.1569C96.5701 17.8589 96.0023 17.7099 95.35 17.7099C94.6416 17.7099 94.0231 17.8842 93.4946 18.2328C92.9717 18.5758 92.5669 19.0256 92.2801 19.5823C91.999 20.1333 91.8584 20.7321 91.8584 21.3787V22.8546C91.8584 23.7205 92.0102 24.4571 92.3139 25.0643C92.6231 25.6716 93.0532 26.1354 93.6042 26.4559C94.1552 26.7708 94.799 26.9282 95.5356 26.9282C96.0135 26.9282 96.4493 26.8607 96.8428 26.7258C97.2364 26.5852 97.5766 26.3772 97.8633 26.1017C98.1501 25.8262 98.3694 25.486 98.5212 25.0812L100.908 25.5113C100.717 26.2141 100.374 26.8298 99.879 27.3584C99.3899 27.8813 98.7742 28.2889 98.032 28.5813C97.2955 28.868 96.4549 29.0114 95.5103 29.0114Z" fill="white"/>
<path d="M104.069 28.75V11.4772H110.225C111.569 11.4772 112.682 11.7218 113.565 12.211C114.448 12.7002 115.108 13.3692 115.547 14.2183C115.986 15.0617 116.205 16.0119 116.205 17.0689C116.205 18.1316 115.983 19.0875 115.539 19.9365C115.1 20.7799 114.437 21.449 113.548 21.9438C112.665 22.4329 111.555 22.6775 110.217 22.6775H105.983V20.4678H109.981C110.83 20.4678 111.518 20.3216 112.047 20.0293C112.575 19.7313 112.963 19.3264 113.211 18.8148C113.458 18.3031 113.582 17.7212 113.582 17.0689C113.582 16.4167 113.458 15.8376 113.211 15.3315C112.963 14.8255 112.573 14.4291 112.039 14.1424C111.51 13.8556 110.813 13.7122 109.947 13.7122H106.675V28.75H104.069Z" fill="white"/>
<path d="M134.264 20.1136C134.264 21.9578 133.927 23.5434 133.252 24.8703C132.577 26.1917 131.652 27.2094 130.477 27.9234C129.308 28.6319 127.978 28.9861 126.488 28.9861C124.992 28.9861 123.657 28.6319 122.482 27.9234C121.312 27.2094 120.39 26.1888 119.715 24.8619C119.041 23.535 118.703 21.9522 118.703 20.1136C118.703 18.2694 119.041 16.6866 119.715 15.3653C120.39 14.0383 121.312 13.0206 122.482 12.3122C123.657 11.5981 124.992 11.2411 126.488 11.2411C127.978 11.2411 129.308 11.5981 130.477 12.3122C131.652 13.0206 132.577 14.0383 133.252 15.3653C133.927 16.6866 134.264 18.2694 134.264 20.1136ZM131.683 20.1136C131.683 18.7079 131.455 17.5244 131 16.5629C130.55 15.5958 129.932 14.8649 129.145 14.3701C128.363 13.8697 127.477 13.6195 126.488 13.6195C125.493 13.6195 124.604 13.8697 123.823 14.3701C123.041 14.8649 122.423 15.5958 121.967 16.5629C121.517 17.5244 121.293 18.7079 121.293 20.1136C121.293 21.5192 121.517 22.7056 121.967 23.6727C122.423 24.6342 123.041 25.3651 123.823 25.8655C124.604 26.3603 125.493 26.6077 126.488 26.6077C127.477 26.6077 128.363 26.3603 129.145 25.8655C129.932 25.3651 130.55 24.6342 131 23.6727C131.455 22.7056 131.683 21.5192 131.683 20.1136Z" fill="white"/>
<path d="M146.934 16.0147C146.844 15.2163 146.473 14.5978 145.82 14.1592C145.168 13.715 144.347 13.4929 143.358 13.4929C142.649 13.4929 142.036 13.6054 141.519 13.8303C141.002 14.0496 140.6 14.3532 140.313 14.7412C140.032 15.1235 139.891 15.5593 139.891 16.0484C139.891 16.4589 139.987 16.8131 140.178 17.1111C140.375 17.4091 140.631 17.6593 140.946 17.8617C141.266 18.0585 141.609 18.2244 141.975 18.3593C142.34 18.4887 142.691 18.5955 143.029 18.6798L144.716 19.1184C145.267 19.2533 145.832 19.4361 146.411 19.6666C146.99 19.8971 147.527 20.2007 148.022 20.5775C148.516 20.9542 148.916 21.4209 149.219 21.9775C149.528 22.5341 149.683 23.2004 149.683 23.9763C149.683 24.9547 149.43 25.8234 148.924 26.5824C148.424 27.3415 147.696 27.9403 146.74 28.3789C145.789 28.8174 144.64 29.0367 143.29 29.0367C141.997 29.0367 140.878 28.8315 139.934 28.421C138.989 28.0106 138.25 27.4286 137.715 26.6752C137.181 25.9161 136.886 25.0165 136.83 23.9763H139.444C139.495 24.6005 139.697 25.1205 140.052 25.5366C140.411 25.9471 140.87 26.2535 141.426 26.4559C141.989 26.6527 142.604 26.7511 143.273 26.7511C144.01 26.7511 144.665 26.6358 145.238 26.4053C145.818 26.1692 146.273 25.8431 146.605 25.427C146.936 25.0053 147.102 24.5133 147.102 23.951C147.102 23.4394 146.956 23.0205 146.664 22.6944C146.377 22.3683 145.986 22.0984 145.491 21.8847C145.002 21.6711 144.448 21.4827 143.83 21.3196L141.789 20.763C140.406 20.3863 139.309 19.8325 138.5 19.1015C137.696 18.3706 137.294 17.4035 137.294 16.2002C137.294 15.205 137.564 14.3363 138.103 13.5941C138.643 12.852 139.374 12.2756 140.296 11.8652C141.218 11.4491 142.258 11.2411 143.417 11.2411C144.586 11.2411 145.618 11.4463 146.512 11.8568C147.412 12.2672 148.12 12.8323 148.637 13.552C149.155 14.2661 149.424 15.087 149.447 16.0147H146.934Z" fill="white"/>
<defs>
<linearGradient id="paint0_linear_1025_358" x1="0" y1="20" x2="39.9996" y2="20" gradientUnits="userSpaceOnUse">
<stop stop-color="#9C6DFF"/>
<stop offset="1" stop-color="#71DDFF"/>
</linearGradient>
</defs>
</svg>
