<svg width="65" height="64" viewBox="0 0 65 64" fill="none" xmlns="http://www.w3.org/2000/svg">
<rect x="0.852661" width="64" height="64" rx="16" fill="url(#paint0_linear_24_441)"/>
<path d="M31.7923 47.6C31.7923 48.9255 30.7132 50.0164 29.3994 49.841C27.8924 49.6397 26.4148 49.2488 25.0036 48.6755C22.8514 47.8011 20.8957 46.5194 19.2485 44.9037C17.6012 43.2879 16.2945 41.3698 15.403 39.2587C14.5115 37.1476 14.0526 34.885 14.0526 32.6C14.0526 30.315 14.5115 28.0524 15.403 25.9413C16.2945 23.8302 17.6012 21.9121 19.2485 20.2963C20.8957 18.6806 22.8514 17.3989 25.0036 16.5245C26.4148 15.9512 27.8925 15.5603 29.3994 15.359C30.7132 15.1836 31.7923 16.2745 31.7923 17.6L31.7923 47.6Z" fill="#151515"/>
<path d="M36.3081 28.6353C36.3081 29.9608 37.3841 31.0449 38.706 30.9475C40.0012 30.8521 41.2708 30.6796 42.4864 30.4326C44.4451 30.0347 46.2249 29.4515 47.724 28.7163C49.2232 27.9811 50.4124 27.1082 51.2237 26.1476C52.035 25.187 52.4526 24.1574 52.4526 23.1177C52.4526 22.0779 52.035 21.0483 51.2237 20.0877C50.4124 19.1271 49.2232 18.2543 47.724 17.519C46.2249 16.7838 44.4451 16.2006 42.4864 15.8027C41.2708 15.5558 40.0012 15.3832 38.706 15.2878C37.3841 15.1905 36.3081 16.2745 36.3081 17.6L36.3081 28.6353Z" fill="#151515"/>
<rect x="36.3081" y="34.1647" width="16.1445" height="15.8353" rx="7.91767" fill="#151515"/>
<defs>
<linearGradient id="paint0_linear_24_441" x1="0.852661" y1="32" x2="64.8527" y2="32" gradientUnits="userSpaceOnUse">
<stop stop-color="#9C6DFF"/>
<stop offset="1" stop-color="#71DDFF"/>
</linearGradient>
</defs>
</svg>
